<?xml version="1.0" encoding="utf-8"?>
<!-- Generator: Adobe Illustrator 16.2.0, SVG Export Plug-In . SVG Version: 6.00 Build 0)  -->
<!DOCTYPE svg PUBLIC "-//W3C//DTD SVG 1.1//EN" "http://www.w3.org/Graphics/SVG/1.1/DTD/svg11.dtd">
<svg version="1.1" id="Layer_1" xmlns="http://www.w3.org/2000/svg" xmlns:xlink="http://www.w3.org/1999/xlink" x="0px" y="0px"
	 width="40px" height="40px" viewBox="0 0 40 40" enable-background="new 0 0 40 40" xml:space="preserve">
<g id="_x32_0180301_x5F_SERP-ReDesign">
	<g id="ic_goTOtop">
		<g id="Icon-shortCut-up">
			<g>
				<circle id="Oval" fill="#FFFFFF" cx="20" cy="20" r="20"/>
				<path id="Rectangle-323-Copy-8" fill="#595A5C" d="M20.272,18.545l5,5c0.362,0.364,0.908,0.364,1.271,0
					c0.362-0.362,0.362-0.908,0-1.271l-5.638-5.638c-0.362-0.362-0.908-0.362-1.271,0l-5.638,5.729
					c-0.362,0.363-0.362,0.909,0,1.272s0.907,0.363,1.271,0L20.272,18.545z"/>
			</g>
			<path id="Line-2" fill="#595A5C" d="M19.365,17.545c0-0.545,0.36-0.909,0.907-0.909c0.545,0,0.908,0.364,0.908,0.909v9.545
				c0,0.545-0.363,0.91-0.908,0.91c-0.547,0-0.907-0.365-0.907-0.91V17.545z"/>
			<path id="Line-2-Copy" fill="#595A5C" d="M25.909,12.728c0.545,0,0.908,0.363,0.908,0.908c0,0.547-0.363,0.909-0.908,0.909
				H14.547c-0.545,0-0.909-0.362-0.909-0.909c0-0.545,0.364-0.908,0.909-0.908H25.909z"/>
		</g>
	</g>
</g>
</svg>
